<?xml version="1.0" standalone="no"?>
<!DOCTYPE svg PUBLIC "-//W3C//DTD SVG 20010904//EN"
 "http://www.w3.org/TR/2001/REC-SVG-20010904/DTD/svg10.dtd">
<svg version="1.0" xmlns="http://www.w3.org/2000/svg"
 width="2515.000000pt" height="2051.000000pt" viewBox="0 0 2515.000000 2051.000000"
 preserveAspectRatio="xMidYMid meet">

<g transform="translate(0.000000,2051.000000) scale(0.100000,-0.100000)"
fill="#000000" stroke="none">
<path d="M4843 15419 c-165 -16 -332 -76 -477 -172 -80 -53 -307 -275 -1924
-1891 -1008 -1007 -1861 -1866 -1895 -1909 -108 -135 -182 -295 -218 -472 -18
-88 -15 -304 5 -400 44 -200 127 -358 277 -524 54 -58 2043 -2050 4420 -4427
3441 -3438 4340 -4331 4402 -4373 355 -240 800 -249 1167 -24 61 38 171 142
603 572 l527 526 -2537 2537 -2538 2538 1690 1690 1690 1690 -2215 2213
c-1452 1451 -2235 2226 -2272 2250 -217 140 -459 201 -705 176z"/>
</g>
</svg>
